<?xml version="1.0" encoding="UTF-8"?>
<svg id="Layer_2" data-name="Layer 2" xmlns="http://www.w3.org/2000/svg" viewBox="0 0 762.85 829.19">
  <defs>
    <style>
      .cls-1 {
        fill: #fff;
        stroke-width: 0px;
      }
    </style>
  </defs>
  <g id="Layer_1-2" data-name="Layer 1">
    <g>
      <path class="cls-1" d="m285.43,646.67c32.48-52.54,64.53-104.37,96.97-156.84,2.81,5.17,5.18,9.4,7.42,13.7,21.13,40.51,42.32,80.99,63.31,121.57,6.26,12.1,11.96,24.5,17.91,36.77.73,1.5,1.68,3.09-1.49,4.3-29.88-40.98-58.11-83.29-86.44-125.85-25.5,47.22-50.89,94.23-76.33,141.32-75.91-.51-151.43-1.01-227.19-1.51,60.72-88.68,121.23-177.05,181.67-265.32C174.07,277.21,87.09,139.96,0,2.54,1.07,1.57,1.68,1.01,2.79,0c96.17,137.83,191.08,276.01,286.06,414.27-49.48,77.45-98.9,154.8-148.48,232.4h145.07Z"/>
      <path class="cls-1" d="m474.71,414.79c49.48-77.44,98.85-154.68,148.46-232.32h-145.09c-32.37,52.33-64.47,104.25-96.93,156.73-1.06-1.82-1.69-2.8-2.23-3.83-24.68-47.39-49.38-94.77-73.98-142.2-4.49-8.67-8.57-17.55-12.78-26.36-.45-.94-.46-2.09-.64-3,2.64-1.28,3.37.41,4.23,1.63,9.23,13,18.61,25.89,27.59,39.06,18.49,27.1,36.75,54.35,55.11,81.53.61.9,1.23,1.79,1.94,2.82,25.52-47.23,50.92-94.26,76.35-141.33,75.92.51,151.37,1.01,227.19,1.52-60.71,88.65-121.26,177.05-181.85,265.53,4.38,6.92,8.63,13.6,12.86,20.29,81.35,128.65,162.7,257.31,244.04,385.96.98,1.56,2.06,3.07,2.92,4.69.5.95.66,2.09.94,3.03-2.3,1.46-3.09.13-3.96-1.12-8.1-11.65-16.25-23.27-24.3-34.95-79.08-114.81-158.14-229.64-237.2-344.46-7.16-10.4-14.28-20.82-21.42-31.23-.41-.6-.79-1.23-1.27-2Z"/>
    </g>
  </g>
</svg>